<?xml version="1.0" encoding="UTF-8" standalone="no"?>
<!DOCTYPE svg PUBLIC "-//W3C//DTD SVG 1.1//EN" "http://www.w3.org/Graphics/SVG/1.1/DTD/svg11.dtd">
<svg width="100%" height="100%" viewBox="0 0 1024 1024" version="1.1" xmlns="http://www.w3.org/2000/svg" xmlns:xlink="http://www.w3.org/1999/xlink" xml:space="preserve" xmlns:serif="http://www.serif.com/" style="fill-rule:evenodd;clip-rule:evenodd;stroke-linejoin:round;stroke-miterlimit:2;">
    <g id="m" transform="matrix(1.21055,0,0,1.21055,-117.784,-408.407)">
        <path d="M801.174,386.181L801.174,386.181C854.233,386.181 898.143,428.262 898.143,483.15L898.143,688.066C898.143,710.022 879.847,728.318 857.892,728.318C835.936,728.318 817.64,710.022 817.64,688.066L817.64,501.446C817.64,479.491 807.721,466.509 785.766,466.509C767.154,466.509 755.097,480.734 755.097,501.446L755.097,688.066C755.097,688.551 755.088,689.034 755.07,689.515C754.823,711.27 736.627,729.318 714.821,729.318C692.866,729.318 674.57,711.022 674.57,689.066L674.57,502.446C674.57,480.491 667.383,465.854 645.427,465.854C626.815,465.854 618.077,481.734 618.077,502.446L618.077,689.066C618.077,711.022 599.781,729.318 577.826,729.318C555.87,729.318 537.574,711.022 537.574,689.066L537.574,484.15C537.574,431.092 579.655,387.182 634.544,387.181L658.104,387.181L658.104,387.181C678.863,387.181 698.223,393.623 714.099,404.754C730.017,393.096 749.782,386.181 771.563,386.181L801.174,386.181Z" style="fill:rgb(37,37,37);"/>
    </g>
    <g id="s" transform="matrix(1.21055,0,0,1.21055,1.23557,-396.985)">
        <path d="M159.297,510.671C138.585,510.671 122.705,499.747 122.705,481.135C122.705,459.179 137.342,451.285 159.297,451.285L345.917,451.285C367.872,451.285 386.168,432.988 386.168,411.033C386.168,389.078 367.872,370.782 345.917,370.782L141.001,370.782C86.113,370.782 44.032,414.692 44.032,467.751L44.032,494.205C44.032,549.093 87.942,586.174 141.001,586.174L270.903,585.957C291.615,585.957 307.495,596.88 307.495,615.493C307.495,637.448 292.858,645.343 270.903,645.343L84.283,645.343C62.328,645.343 44.032,663.639 44.032,685.595C44.032,707.55 62.328,725.846 84.283,725.846L289.199,725.846C344.087,725.846 386.168,681.935 386.168,628.877L386.168,602.423C386.168,547.535 342.258,510.454 289.199,510.454L159.297,510.671Z" style="fill:rgb(37,37,37);"/>
    </g>
    <g id="s1" serif:id="s" transform="matrix(1.21055,0,0,1.21055,24.0919,91.3078)">
        <path d="M159.297,510.671C138.585,510.671 122.705,499.747 122.705,481.135C122.705,459.179 137.342,451.285 159.297,451.285L345.917,451.285C367.872,451.285 386.168,432.988 386.168,411.033C386.168,389.078 367.872,370.782 345.917,370.782L141.001,370.782C86.113,370.782 44.032,414.692 44.032,467.751L44.032,494.205C44.032,549.093 87.942,586.174 141.001,586.174L270.903,585.957C291.615,585.957 307.495,596.88 307.495,615.493C307.495,637.448 292.858,645.343 270.903,645.343L84.283,645.343C62.328,645.343 44.032,663.639 44.032,685.595C44.032,707.55 62.328,725.846 84.283,725.846L289.199,725.846C344.087,725.846 386.168,681.935 386.168,628.877L386.168,602.423C386.168,547.535 342.258,510.454 289.199,510.454L159.297,510.671Z" style="fill:rgb(37,37,37);"/>
    </g>
    <g transform="matrix(1.32104,0,0,1.32104,574.289,-497.585)">
        <path d="M135.79,785.869C186.078,786.109 235.495,810.753 265.866,851.102C301.474,898.409 308.689,965.382 282.727,1019.65C260.529,1066.06 215.357,1100.77 164.644,1110C113.921,1119.24 59.289,1102.96 21.843,1066.83C-4.389,1041.52 -21.842,1007.22 -26.678,971.038C-33.538,919.714 -14.558,865.75 23.618,829.998C53.387,802.118 93.669,786.065 134.741,785.869C135.091,785.868 135.44,785.868 135.79,785.869ZM134.968,858.414C112.623,858.52 90.475,867.147 74.011,882.204C45.895,907.917 35.979,951.97 53.128,988.097C67.737,1018.87 100.404,1039.99 134.973,1040.1C177.437,1040.24 218.555,1007.54 225.145,962.557C227.945,943.448 224.529,923.491 215.422,906.492C200.134,877.955 169.306,858.788 136.151,858.417C135.757,858.414 135.363,858.413 134.968,858.414Z" style="fill:rgb(37,37,37);"/>
    </g>
</svg>
